<svg id="Layer_1" data-name="Layer 1" xmlns="http://www.w3.org/2000/svg" viewBox="0 0 1000 1000">
  <defs>
    <style>
      .cls-1 {
        fill: #fff;
      }

      .cls-2 {
        fill: #ff6f00;
      }
    </style>
  </defs>
  <g>
    <g>
      <path class="cls-1" d="M249.536,560.99333a.03227.03227,0,0,1-.02138.03763L210.2491,573.69725a.03194.03194,0,0,1-.04051-.02162L163.488,410.15351c-.39432-1.38012-8.45169-.72169,6.77076-4.5273C198.16656,398.015,215.46581,407.07445,249.536,560.99333Z"/>
      <path d="M244.35515,557.965l-.02138.03763,3.58578-2.75735-39.26549,12.66628,4.62335.60485-.0405-.02161,2.75736,3.58578L175.19086,429.26866c-1.92007-6.72024-3.54488-13.61811-5.78317-20.2411a7.89855,7.89855,0,0,0-1.91738-3.423,8.36908,8.36908,0,0,0-3.65636-1.99117c-1.31515-.32348.46577.21109.43663.22553q4.74971,7.73622.04785,9.69179.85315-.30129,1.72086-.5579a101.2023,101.2023,0,0,1,13.0022-3.1023c-2.082.30166,1.56594-.09508,2.33183-.108.64249-.01081,1.2812.02361,1.9229.03173.31814.004.63525.05125.95248.06955,1.63025.09407-1.06156-.21773-.0197-.01349a36.677,36.677,0,0,1,3.72731.95437c1.855.56836-.61149-.403.71268.29057.71986.377,1.43749.74255,2.13034,1.16953.6246.38492,1.22289.80555,1.81678,1.23565-1.49525-1.08286.55235.47125.89824.793a47.30267,47.30267,0,0,1,3.91719,4.1075,37.83646,37.83646,0,0,1,2.994,4.16079c1.432,2.19116,2.742,4.461,3.97421,6.76968,7.83369,14.67711,12.90225,30.84261,17.64742,46.722,8.5149,28.49446,15.26682,57.5127,21.70317,86.535,1.67129,7.53607,13.24283,4.34685,11.57134-3.19007-6.696-30.1933-13.70708-60.4055-22.74915-89.99736-5.05726-16.55083-10.5809-33.53045-19.19322-48.63416-4.58246-8.03639-10.62728-16.328-19.265-20.3161-7.25989-3.35193-15.01052-3.08884-22.65966-1.319a84.484,84.484,0,0,0-10.63167,2.94423c-4.8314,1.81254-8.42767,7.48975-3.3627,11.55028.80778.64759,2.24639,1.63433,3.326,1.60777-.87872.02162-2.9755-4.91631-3.00809-3.22017a11.73482,11.73482,0,0,0,.8158,2.85529l9.82727,34.39543L198.122,553.21735c2.06278,7.21973,3.52689,15.059,6.29988,22.04958,3.1499,7.94069,13.16273,2.36423,18.7455.56334l24.94013-8.0452c2.42844-.78337,5.24023-1.35352,6.60931-3.76343C258.537,557.29711,248.17369,551.24349,244.35515,557.965Z"/>
    </g>
    <g>
      <path class="cls-1" d="M460.11949,953s-15.85672-97.04309-11.41683-107.82566,83.72345-116.70542-24.10221-192.81765c-123.68238-86.8948-170.61825-105.92285-215.65132-72.30662C196.26376,554.67933,164.55033,424.02,164.55033,424.02c-24.10221-97.67736-84.992-62.15832-84.992-62.15832L127.76275,610.495c13.95391,96.40883,149.05312,175.6924,152.22446,185.20643S264.76477,953,264.76477,953Z"/>
      <path d="M465.90516,951.405c-4.96736-30.42719-10.17448-61.27486-11.78785-92.08958a90.87291,90.87291,0,0,1-.13933-9.42729c.02794-.54005.06668-1.07815.11163-1.61706.11861-1.42181.12133.82707.01683-.12053a2.90947,2.90947,0,0,1,.25379-1.024c.10419-.26115-.74667,1.53762-.21793.50864,1.75931-3.42383,3.83533-6.6875,5.7555-10.022A227.79308,227.79308,0,0,0,479.3289,795.095c6.29006-19.1912,9.24975-39.755,6.634-59.87157-3.25448-25.02859-15.01551-47.59271-32.29453-65.85109-11.50362-12.15564-25.1468-21.63492-38.83346-31.13142-14.26449-9.89742-28.63067-19.65443-43.21884-29.0698-21.43534-13.83462-43.40453-27.33454-66.81222-37.60769-29.08577-12.76514-60.99591-19.51411-89.90924-2.66423a97.847,97.847,0,0,0-8.97378,5.97l8.20913,2.15251c-2.99811-6.07406-5.88916-15.10825-8.37092-22.91495-3.78-11.89058-7.22357-23.88823-10.57332-35.90611-6.83182-24.51053-13.21388-49.14715-19.41055-73.82519-9.237-36.7858-20.16293-89.37627-65.57893-94.48721A56.89738,56.89738,0,0,0,76.53,356.68085a6.18614,6.18614,0,0,0-2.75736,6.77587l19.65345,101.3704,26.52112,136.79314c.66442,3.427,1.38428,6.84848,1.99417,10.28574A159.68217,159.68217,0,0,0,134.944,653.01633c14.64466,30.8376,37.71655,57.403,62.23335,80.8183,20.1149,19.21116,41.96054,36.33792,63.96147,53.30276,2.50559,1.93206,5.99071,4.61661,8.89113,7.02525,1.03523.85969,2.07233,1.72336,3.05426,2.64421.37749.354.73569.7394,1.1209,1.084.8876.794.50531,1.44042.14581.0303.09806.38463.75815,2.0892-.14933-.62472.25609.76587-.19022,1.15253-.00514-.5384a28.4985,28.4985,0,0,0,.15628,3.18394c.04067,3.50065-.16908,7.00992-.379,10.50249-2.79345,46.47181-9.09556,92.86891-14.77713,139.05967q-.215,1.748-.43176,3.49587c-.4013,3.22532,3.07421,6,6,6H460.11949c7.72143,0,7.73422-12,0-12H264.76477l6,6c5.29333-42.54422,10.48255-85.16716,14.11267-127.88911.72319-8.511,1.67377-17.169,1.46876-25.724-.13272-5.53867-2.06291-8.73405-6.17258-12.30892-17.05149-14.83257-35.84459-27.64514-53.03521-42.3575-25.28549-21.64024-49.47764-45.47511-67.92329-73.33664-9.171-13.85245-16.95315-28.72812-21.71232-44.69188-2.07042-6.94483-3.22568-14.0335-4.60049-21.12464L108.87542,481.63919,85.75,362.36053l-.406-2.09389-2.75736,6.77586c.60569-.35116,1.23757-.65911,1.86749-.96351.53522-.25863,3.04717-1.30162,1.0702-.50763,1.00271-.40271,2.00784-.79357,3.02906-1.14758a43.81718,43.81718,0,0,1,16.78275-2.85428,39.77144,39.77144,0,0,1,21.25132,6.59167c9.694,6.31969,16.41445,16.38869,21.44787,26.59547,7.94493,16.11075,11.44719,33.97631,15.7889,51.296,5.91177,23.58294,11.9994,47.12542,18.46593,70.56282,3.63871,13.18817,7.37689,26.356,11.493,39.40427,2.87657,9.11875,5.74113,18.46051,9.9851,27.05862,1.32747,2.68941,5.73195,3.98855,8.20913,2.15251,10.46213-7.75433,22.23349-13.39425,34.46162-14.522,15.17993-1.4,29.87884,2.43915,44.08921,7.85459,21.427,8.16562,41.49542,19.99032,60.92525,32.03664,13.24674,8.21285,26.262,16.79605,39.16331,25.53968,14.48352,9.816,29.60773,19.29913,42.92412,30.6813,19.35262,16.54164,34.28649,37.71025,39.43948,62.92875,3.94687,19.31575,1.67326,39.35562-3.94934,58.096a203.3143,203.3143,0,0,1-18.36183,41.72933c-2.08049,3.6677-4.379,7.23492-6.34666,10.96461-2.06752,3.91885-2.40572,7.98053-2.40357,12.3656.00869,17.70841,2.8559,35.58718,5.2118,53.0957q3.09825,23.02556,6.77995,45.96913.21,1.31262.423,2.62479C455.575,962.19765,467.14049,958.97184,465.90516,951.405Z"/>
    </g>
    <path d="M338.14268,681.73029c-16.78155-14.2535-34.16481-27.94393-52.14151-40.65541-13.06833-9.24073-27.45174-16.40872-39.67314-26.74459-12.497-10.569-23.86432-22.65108-31.79005-37.06732-5.8239-10.59319-9.01036-22.02-11.85428-33.69271-1.82715-7.49947-13.40194-4.32349-11.57135,3.19008,2.59143,10.63638,5.51763,21.05819,10.21806,30.99009,6.67883,14.11225,16.64328,26.55673,27.87643,37.31011,7.43663,7.119,15.709,14.85569,24.71686,19.88071,5.86862,3.2738,11.59948,6.69408,17.19485,10.42338,12.7986,8.53024,25.08336,17.83825,37.13749,27.38345,7.21752,5.71528,14.38387,11.50714,21.40136,17.46749,5.85374,4.9719,14.38226-3.47665,8.48528-8.48528Z"/>
  </g>
  <g>
    <g>
      <path class="cls-1" d="M749.88005,560.35906a.03227.03227,0,0,0,.02138.03763L789.16692,573.063a.03193.03193,0,0,0,.0405-.02162L835.928,409.51924c.39432-1.38012,8.45169-.72169-6.77076-4.5273C801.24945,397.38072,783.95021,406.44019,749.88005,560.35906Z"/>
      <path d="M744.69922,563.38737c1.40488,2.4729,4.38079,3.04455,6.87655,3.84963l11.1947,3.6112c7.78791,2.51223,15.54158,5.3141,23.41286,7.55253,4.8387,1.376,7.90166-.87479,9.27218-5.38277,1.15787-3.80852,2.18877-7.66068,3.2823-11.48807l28.70431-100.46506,11.89047-41.61666c.39691-1.38917,2.87634-6.66457,2.30533-8.06863-.42708-1.05013-2.16022,4.24437-3.1504,3.26944.50329.49553,3.67994-1.72408,4.07542-2.12613,4.25151-4.32216.56939-9.38252-3.96986-11.08118-8.35345-3.126-18.61691-5.51244-27.5346-3.623-8.832,1.87132-15.48305,8.33919-20.61119,15.4057-8.66067,11.93428-13.91939,26.49394-18.67718,40.31156-8.8424,25.6802-15.396,52.15932-21.60461,78.57631q-3.127,13.305-6.07113,26.65176c-1.66872,7.52448,9.89739,10.73819,11.57135,3.19008,5.89247-26.56988,12.08478-53.10833,19.58114-79.27826,4.559-15.91554,9.40979-31.99991,16.3537-47.06724a105.98848,105.98848,0,0,1,7.39-13.68115,36.609,36.609,0,0,1,6.91115-8.26829c.34589-.32173,2.39349-1.87585.89824-.793.59389-.4301,1.19218-.85073,1.81678-1.23565.59553-.367,1.21392-.68179,1.82515-1.0197,1.7092-.94489-.8147.12109,1.01787-.4404a36.677,36.677,0,0,1,3.72731-.95437c-.0417.00817-1.03283-.01173.61465-.037.74807-.01147,1.49154-.06342,2.241-.05081.80405.01353,4.39441.40681,2.33183.108,1.478.21415,2.94184.49591,4.39681.83256,2.8888.6684,5.75433,1.46058,8.60539,2.26974.14208.04033,2.46627.35927,1.36077.39268l.40794-9.52657q1.629-.64176.72051-.31976a8.22639,8.22639,0,0,0-3.94024,2.0854c-1.65826,1.59886-2.06823,3.951-2.67494,6.07449L826.159,421.866l-24.00337,84.01183-18.73386,65.56849,2.75736-3.58578-.04051.02161,4.62336-.60485L751.49647,554.611l3.58578,2.75736-.02138-.03764C751.24646,550.61649,740.87521,556.65621,744.69922,563.38737Z"/>
    </g>
    <g>
      <path class="cls-1" d="M539.29653,952.36573s15.85671-97.04309,11.41683-107.82566-83.72345-116.70542,24.10221-192.81765c123.68237-86.89479,170.61825-105.92285,215.65132-72.30662,12.68537-25.37074,44.3988-156.03007,44.3988-156.03007,24.10221-97.67736,84.992-62.15832,84.992-62.15832L871.65327,609.8607c-13.95391,96.40882-149.05312,175.69239-152.22446,185.20642s15.22244,157.29861,15.22244,157.29861Z"/>
      <path d="M545.0822,953.96077c4.93772-30.2456,9.83908-60.78713,11.97461-91.37422.4096-5.86673,1.19045-12.45123-.17589-18.2604-.75564-3.2127-2.71808-6.07913-4.36887-8.89209-6.7121-11.43746-13.00465-23.13057-17.77576-35.52872-6.88842-17.90019-11.08409-36.91334-10.12125-56.169,1.15551-23.1089,10.61769-44.841,25.74221-62.24212,10.56973-12.1607,23.18907-21.623,36.34158-30.78686,14.03266-9.7771,28.15773-19.42616,42.48125-28.77317,21.46467-14.00706,43.404-27.6814,66.69421-38.47882,14.72142-6.82488,30.9252-12.828,46.99289-13.58743A63.17131,63.17131,0,0,1,778.766,578.8039a98.362,98.362,0,0,1,8.67258,5.79273c2.48263,1.84007,6.8881.52387,8.20914-2.15251,8.76611-17.75977,13.48615-38.00064,18.82994-56.96263,6.8225-24.209,13.16127-48.55512,19.32161-72.94017,3.988-15.786,7.20908-32.1057,12.86729-47.39553,7.31706-19.77248,20.6187-40.89286,42.90174-43.94119a44.58863,44.58863,0,0,1,19.32558,1.94221c1.26206.38708,2.49611.84044,3.737,1.28824.73777.26623,1.828.75987.40412.13911.46435.20243.93543.39558,1.39067.61818.80662.39442,1.62593.765,2.40367,1.21589l-2.75735-6.77586L894.32488,461.486,867.8157,598.21752c-3.44544,17.77121-7.09131,34.97814-15.2967,51.37019-15.21265,30.39056-38.40095,56.20655-63.09911,79.21438-19.58637,18.24589-40.73437,34.51763-61.84071,50.928-4.32725,3.36448-10.3729,7.00843-13.15956,11.9345-2.772,4.90013-1.29519,12.85729-.97726,18.14556,2.7938,46.47185,9.09555,92.86884,14.77713,139.05966q.215,1.748.43176,3.49587l6-6H539.29653c-7.72143,0-7.73422,12,0,12H734.65125c2.947,0,6.40247-2.76526,6-6-5.27635-42.40778-10.44089-84.893-14.0774-127.47626-.729-8.537-1.64229-17.19134-1.5091-25.77149a25.21986,25.21986,0,0,0,.15487-2.99422,1.85715,1.85715,0,0,1-.84235,2.05468c1.8888-1.36606,3.54342-3.44224,5.371-4.94881,17.8119-14.6836,37.39045-28.73836,55.24685-44.31446,25.391-22.14855,49.378-46.71154,67.5879-75.21473,9.03021-14.1346,16.57394-29.4373,21.23448-45.58706,1.92206-6.66036,3.00131-13.45885,4.317-20.24493L902.11194,484.195,925.2374,364.91633l.406-2.09388a6.20789,6.20789,0,0,0-2.75736-6.77586c-8.21606-4.76357-18.51519-7.07788-27.92091-7.11489-21.75692-.0856-39.11528,13.723-49.93211,31.74723-10.44416,17.40324-14.92482,37.14387-19.7747,56.598-5.84562,23.4482-11.87067,46.85463-18.23632,70.16738-3.85008,14.1-7.80447,28.17838-12.14242,42.13717-1.71934,5.53256-3.49441,11.05105-5.442,16.508q-1.10322,3.09106-2.30471,6.14454c-.14144.35889-.287.7166-.43387,1.07335a2.92956,2.92956,0,0,1-.23344.54688c-.37808.852-.76679,1.69731-1.17942,2.53326l8.20914-2.15251c-11.50556-8.5277-24.54191-14.34535-38.83246-15.98289-15.68139-1.79693-31.62471,1.78554-46.30642,7.11607-21.86792,7.93966-42.34825,19.49286-62.14453,31.58605-13.2444,8.09076-26.24086,16.58353-39.11526,25.24877-15.05364,10.132-30.4522,20.10391-44.68633,31.37231-20.89838,16.54413-38.00226,38.28846-45.51955,64.14046-5.99461,20.61549-5.45189,42.5415-.58206,63.321,3.93864,16.80614,10.69892,32.9291,18.84475,48.111,2.56276,4.77639,5.31505,9.44014,8.04183,14.12324.7173,1.23193,1.40951,2.47169,2.07855,3.72986.48886.91931-.12537-.338-.2588-.63545a2.59486,2.59486,0,0,1,.26183.99008c-.33057,1.06457-.06027-.85394.02955.06739.06764.69378.11055,1.38793.14226,2.08423.7827,17.18712-2.39416,34.973-4.64076,51.95037C538.752,916.99275,536.436,932.497,533.96186,947.971q-.22386,1.4001-.451,2.79967C532.27754,958.32526,543.83908,961.57545,545.0822,953.96077Z"/>
    </g>
    <path d="M669.75862,689.5813c17.134-14.55283,34.8823-28.551,53.37241-41.33978,6.11372-4.22859,12.33491-8.33425,18.80845-11.995a134.08648,134.08648,0,0,0,22.238-16.305c12.43749-10.8949,23.72126-23.55951,31.57318-38.19693,6.03035-11.24168,9.55009-23.29306,12.553-35.61851,1.82755-7.5011-9.74127-10.70156-11.57135-3.19008-2.45779,10.08788-5.06882,20.14017-9.67351,29.49949-6.85478,13.93277-16.86123,25.812-28.27028,36.24866a125.92424,125.92424,0,0,1-22.90568,17.20071c-6.10707,3.45354-11.9875,7.30677-17.76807,11.27773-12.46245,8.56108-24.48413,17.76791-36.32338,27.16629-6.91648,5.49052-13.78684,11.04994-20.51806,16.76715-5.89445,5.00647,2.629,13.4593,8.48528,8.48528Z"/>
  </g>
  <g>
    <path class="cls-2" d="M498.7844,221.68832C675.77081-3.477,1041.10951,300.97189,500.39256,640.30559-38.41562,300.97189,323.11748-2.20849,498.7844,221.68832Z"/>
    <path d="M503.027,225.931c28.90152-36.63818,68.09357-65.199,114.38508-73.45352,36.74347-6.552,75.70959,1.19178,106.63127,23.39863,30.98224,22.25035,50.34793,58.82917,53.80042,97.16053,4.90386,54.44538-17.378,107.56629-46.74651,152.2687C681.443,500.88516,608.91953,560.48523,534.75781,610.75141q-18.47593,12.52281-37.39356,24.37335h6.05663c-80.84981-51.00146-160.335-111.02956-218.09575-188.18924-33.89062-45.27275-62.30866-99.66-62.93943-157.40864-.4344-39.7713,13.84906-78.23,43.422-105.00248,27.34-24.751,64.62653-36.19588,101.82042-33.28777,43.443,3.3967,83.92761,27.0252,113.9271,59.44282,4.53759,4.90335,8.85393,10.00308,12.98651,15.25151,4.77414,6.06322,13.21336-2.48055,8.48528-8.48528-29.73526-37.76416-71.20822-67.78777-119.26227-76.15988-39.66351-6.91029-81.72985,1.07979-114.48172,25.05784-34.04135,24.92209-54.11827,63.347-58.14019,105.07566-5.43957,56.43708,17.52769,112.33182,47.81537,158.73215,50.80243,77.82869,124.91016,139.13412,201.06541,190.91292q18.45036,12.54461,37.34061,24.422a5.94833,5.94833,0,0,0,6.05663,0c83.44957-52.45589,164.91234-114.33379,224.07858-194.158,34.897-47.08135,63.25281-103.93354,63.0169-163.8007-.16742-42.489-16.52124-84.41326-48.75956-112.76706-30.24977-26.60487-70.92643-39.24586-110.95837-36.01028-47.75438,3.85974-90.97951,28.62817-123.19866,63.38673-4.56183,4.92138-8.90233,10.04047-13.058,15.30858C489.80967,223.44451,498.24512,231.993,503.027,225.931Z"/>
  </g>
  <path class="cls-2" d="M345.00911,38.94171c-44.08568-8.4109-89.27332-1.36744-125.58073,25.99374-24.24373,18.27-43.33248,43.01729-56.636,70.20742a151.77914,151.77914,0,0,0-7.83334,18.35221c-2.4557,7.34019,9.12959,10.48859,11.57135,3.19008.39876-1.19191.85256-2.3668,1.30909-3.53739.22679-.58153.46011-1.16043.69312-1.73949.14287-.355.29086-.708.43567-1.06223.55586-1.35976-.25064.57279.096-.23187q1.14618-2.66032,2.36058-5.2898a209.54536,209.54536,0,0,1,17.39873-30.44863c19.02053-27.64358,45.70936-50.53557,78.051-60.731,24.2869-7.65625,50.05783-7.87965,74.94436-3.13167,7.54646,1.43975,10.77932-10.12343,3.19008-11.57135Z"/>
  <path class="cls-2" d="M660.87486,50.51306c41.28191-7.876,83.46391-.63484,117.08353,25.35389,22.28277,17.22509,39.5552,40.59048,51.81134,65.80388q1.59368,3.27851,3.06612,6.61422c.38076.86456,1.21514,2.84633.68871,1.57836.3295.79363.65729,1.58785.97525,2.38619.58378,1.46577,1.16293,2.93875,1.66369,4.43556,2.43782,7.28672,14.03123,4.16258,11.57135-3.19008-5.58831-16.70365-14.723-32.742-24.81956-47.06666-20.95676-29.7326-49.77469-53.8906-84.927-64.67254-26.078-7.99867-53.68116-7.89332-80.30352-2.81417-7.57718,1.44562-4.36877,13.01347,3.19007,11.57135Z"/>
  <path d="M321.52244,181.01788c-28.69452,9.765-52.44871,30.52492-64.363,58.60665a119.5642,119.5642,0,0,0-8.54294,60.07883c.89979,7.575,12.91056,7.66572,12,0a111.395,111.395,0,0,1,6.436-52.76978c9.932-25.85705,31.62279-45.48367,57.66-54.34436,7.27031-2.47414,4.14926-14.069-3.19007-11.57134Z"/>
</svg>
